<svg width="281" height="29" viewBox="0 0 281 29" fill="none" xmlns="http://www.w3.org/2000/svg">
<g clip-path="url(#clip0)">
<path fill-rule="evenodd" clip-rule="evenodd" d="M6.7808 18.6146C5.81331 15.5032 5.93328 12.1552 7.121 9.12106C8.30872 6.08689 10.4935 3.54715 13.3161 1.91938C16.1387 0.291608 19.4312 -0.327309 22.6523 0.164384C25.8733 0.656077 28.8312 2.22911 31.0396 4.62488C30.482 4.89872 29.9105 5.18347 29.3251 5.47914C27.3754 3.53456 24.8391 2.28688 22.1087 1.92923C19.3783 1.57157 16.6062 2.12388 14.2214 3.50067C11.8365 4.87746 9.97206 7.00194 8.91648 9.54529C7.86091 12.0886 7.67312 14.909 8.38218 17.5699C7.83251 17.9211 7.29871 18.2693 6.7808 18.6146ZM40.7597 2.3788C40.6788 2.35703 40.5925 2.36831 40.5199 2.41015H40.5288C36.3657 4.23198 32.2654 6.18703 28.234 8.27174L20.3956 4.75573C20.2473 4.69049 20.0859 4.66082 19.9241 4.66909C19.7623 4.67735 19.6048 4.72334 19.4639 4.80336C19.324 4.88376 19.205 4.99599 19.1166 5.13096C19.0282 5.26594 18.9728 5.41986 18.955 5.58023L18.2019 12.3489L14.4514 10.7564C14.3065 10.6945 14.1491 10.6669 13.9917 10.6757C13.8343 10.6846 13.6811 10.7297 13.544 10.8074C13.4069 10.8852 13.2896 10.9936 13.2012 11.1242C13.1128 11.2547 13.0558 11.4039 13.0346 11.5601L12.2123 17.4699C8.09547 20.0802 4.06783 22.8345 0.137081 25.7284C0.0715267 25.7738 0.0254198 25.8422 0.0078385 25.92C-0.00974285 25.9978 0.00248924 26.0793 0.0421385 26.1485C0.0817878 26.2177 0.145957 26.2695 0.221959 26.2937C0.297962 26.3179 0.380276 26.3126 0.452612 26.279C7.58055 23.1391 14.5357 19.6208 21.2884 15.7391C28.0275 11.8306 34.5525 7.56405 40.8354 2.95783C40.908 2.91599 40.961 2.84702 40.9828 2.76608C41.0046 2.68514 40.9933 2.59886 40.9515 2.52623C40.9096 2.4536 40.8407 2.40057 40.7597 2.3788ZM14.2101 16.2188C15.3682 15.5026 16.5332 14.7977 17.7048 14.1042L14.6866 12.8222L14.2101 16.2188ZM19.9744 12.7798C22.0277 11.5988 24.101 10.4524 26.1934 9.34118L20.6337 6.84824L19.9744 12.7798ZM30.8957 21.2731C32.2676 19.2167 33.0002 16.8002 33.0011 14.3282C33.0017 13.2511 32.8626 12.1786 32.5873 11.1373C33.137 10.7761 33.6708 10.4229 34.1887 10.0776C35.1473 13.186 35.0219 16.5277 33.833 19.5554C32.6441 22.5831 30.4622 25.1173 27.6448 26.7429C24.8273 28.3685 21.5413 28.9891 18.3251 28.503C15.1088 28.0169 12.153 26.453 9.94179 24.0674C10.4915 23.7936 11.064 23.5088 11.6593 23.2131C13.4142 24.9542 15.6452 26.1369 18.0711 26.6122C20.4971 27.0875 23.0094 26.8341 25.2916 25.884C27.5738 24.9339 29.5237 23.3296 30.8957 21.2731ZM39.676 22.6612C39.9177 22.2995 40.0467 21.8742 40.0467 21.4392C40.0467 20.8558 39.815 20.2963 39.4025 19.8838C38.9899 19.4713 38.4305 19.2395 37.8471 19.2395C37.412 19.2395 36.9867 19.3685 36.625 19.6102C36.2633 19.8519 35.9813 20.1955 35.8148 20.5974C35.6483 20.9993 35.6048 21.4416 35.6897 21.8683C35.7745 22.295 35.984 22.687 36.2917 22.9946C36.5993 23.3022 36.9912 23.5117 37.4179 23.5966C37.8446 23.6815 38.2869 23.6379 38.6888 23.4714C39.0908 23.3049 39.4343 23.023 39.676 22.6612ZM4.9563 6.23839C4.9563 6.45457 4.89214 6.66589 4.77197 6.8456C4.65181 7.02531 4.48105 7.16532 4.28127 7.24792C4.08149 7.33051 3.86168 7.35197 3.6497 7.30958C3.43772 7.26718 3.24305 7.16285 3.0904 7.00978C2.93774 6.85671 2.83394 6.66178 2.79213 6.44968C2.75031 6.23758 2.77239 6.01784 2.85553 5.81829C2.93867 5.61873 3.07914 5.44833 3.25917 5.32866C3.43921 5.20898 3.65069 5.14542 3.86687 5.14601C4.01019 5.146 4.1521 5.17428 4.28447 5.22921C4.41684 5.28415 4.53706 5.36466 4.63826 5.46614C4.73946 5.56762 4.81965 5.68806 4.87422 5.82058C4.92879 5.9531 4.95669 6.09508 4.9563 6.23839Z" fill="#4ECAFF"/>
<path fill-rule="evenodd" clip-rule="evenodd" d="M54.4771 5.02734C54.4771 5.02734 54.4771 5.02734 54.5387 5.02734L69.9249 17.4796L85.3111 5.02734H85.3726V9.13362L70.048 22.0068L57.8107 12.0285H57.7493V23.7519H54.5592L54.4771 5.02734ZM82.1722 23.7725H85.4342V14.3075H82.2852L82.1722 23.7725Z" fill="#4ECAFF"/>
<path fill-rule="evenodd" clip-rule="evenodd" d="M107.456 5.30469C110.954 5.30469 114.452 7.63496 114.452 11.2382V13.2298H111.18V11.2382C111.18 10.0782 109.867 8.57944 107.456 8.57944H96.2861C93.8756 8.57944 92.5626 10.0782 92.5626 11.2382V13.2298H89.2905V11.2382C89.2905 7.63496 92.7883 5.30469 96.2861 5.30469H107.456ZM114.452 16.5045V17.6748C114.452 21.2678 110.954 23.5981 107.456 23.5981H96.2861C92.7883 23.5981 89.2905 21.2678 89.2905 17.6748V16.5045H92.6139V17.6748C92.6139 18.8246 93.9269 20.3234 96.3374 20.3234H107.508C109.918 20.3234 111.231 18.8246 111.231 17.6748V16.5045H114.452Z" fill="#4ECAFF"/>
<path fill-rule="evenodd" clip-rule="evenodd" d="M144.724 17.675V11.2384C144.724 7.63515 141.226 5.30484 137.688 5.46909H119.562V8.66171H119.573V15.3041H123.235V8.66171H137.688C140.098 8.66171 141.421 10.1605 141.421 11.3205V17.7571C141.421 18.9069 140.098 20.4056 137.688 20.4056H119.562V23.5983H137.728C141.226 23.5983 144.724 21.268 144.724 17.675Z" fill="#4ECAFF"/>
<path fill-rule="evenodd" clip-rule="evenodd" d="M153.107 12.7991H167.816V15.9917H149.845V5.35645H175.489V8.54906H153.056L153.107 12.7991ZM149.835 23.578H175.479V20.3751H149.835V23.578Z" fill="#4ECAFF"/>
<path fill-rule="evenodd" clip-rule="evenodd" d="M203.289 23.6494V23.711H199.463L193.781 14.9954V14.9338H198.673C200.602 14.9338 201.535 13.7532 201.535 12.9833V10.5606C201.535 9.79069 200.602 8.59984 198.673 8.59984H180.128V5.40723H198.673C201.689 5.40723 204.828 7.4604 204.828 10.6428V13.0654C204.828 15.8885 202.417 17.7979 199.781 18.1983V18.2496L203.289 23.6494Z" fill="#4ECAFF"/>
<path d="M183.256 23.2799H180.107V13.6196H183.256V23.2799Z" fill="#4ECAFF"/>
<path d="M189.831 18.1574L189.781 14.8936L195.938 14.945L195.989 18.1574H189.831Z" fill="#4ECAFF"/>
<path fill-rule="evenodd" clip-rule="evenodd" d="M210.644 4.6377C210.644 4.6377 210.644 4.6377 210.706 4.6377L229.015 17.6135V5.10994H232.287V23.8551C232.287 23.8551 232.287 23.8551 232.226 23.8551L210.613 8.45656L210.644 4.6377ZM210.644 23.311H213.824V14.2772H210.747L210.644 23.311Z" fill="#4ECAFF"/>
<path d="M242.166 21.2563H239.139V24.2779H242.166V21.2563Z" fill="#4ECAFF"/>
<path fill-rule="evenodd" clip-rule="evenodd" d="M276.465 22.1917C277.653 22.1917 278.239 21.4245 278.239 20.9281V20.6121C278.178 20.2767 278.005 19.9719 277.748 19.7478C277.491 19.5237 277.166 19.3935 276.826 19.3785V17.1973C277.726 17.2298 278.582 17.5982 279.224 18.2301C279.867 18.8621 280.25 19.7118 280.298 20.6121V20.9281C280.24 21.89 279.805 22.79 279.087 23.4323C278.369 24.0747 277.427 24.4073 276.465 24.358H264.184V22.1917H276.465ZM265.396 18.498C264.678 17.8556 264.242 16.9556 264.184 15.9937V15.6929C264.239 14.7295 264.673 13.8271 265.392 13.1839C266.11 12.5408 267.055 12.2095 268.017 12.2629H280.298V14.4141H268.017C266.83 14.4141 266.244 15.1965 266.244 15.6929V15.9937C266.244 16.4901 266.83 17.2574 268.017 17.2574V17.2577H274.165V19.4239H268.012C267.052 19.4719 266.112 19.1392 265.396 18.498ZM260.667 12.3683H258.397V19.3184H258.412V20.8978C258.412 21.5146 257.495 22.4021 255.842 22.4021H248.326C248.297 22.4058 248.27 22.4201 248.25 22.4423C248.231 22.4644 248.22 22.493 248.221 22.5225V24.2375C248.22 24.267 248.231 24.2955 248.25 24.3177C248.27 24.3398 248.297 24.3541 248.326 24.3578H255.842C258.247 24.3578 260.667 22.9738 260.667 20.8226V19.3184H260.667V12.3683Z" fill="#4ECAFF"/>
</g>
<defs>
<clipPath id="clip0">
<rect width="280.298" height="28.6642" fill="white"/>
</clipPath>
</defs>
</svg>